Coordinates
version=1
nRows=43
nColumns=12
inDegrees=yes

Units are S.I. units (second, meters, Newtons, ...)
Angles are in degrees

endheader
time	SC_y	SC_z	SC_x	AC_y	AC_z	AC_x	GH_y	GH_z	GH_yy	EL_x	PS_y
       0.0              -35.43          31.81          73.66          42.14         -19.71         -2.016          177.8         -12.44          46.42          124.4          151.0
  0.009546              -35.43          31.81          73.65          42.14          -19.7         -2.016          177.8         -12.43          46.42          124.4          151.0
   0.01909              -35.43          31.81          73.64          42.14          -19.7         -2.016          177.8         -12.41          46.43          124.4          151.0
   0.02864              -35.43          31.81          73.64          42.14         -19.69         -2.017          177.8          -12.4          46.43          124.4          151.0
   0.03818              -35.43          31.81          73.63          42.15         -19.69         -2.017          177.7         -12.38          46.43          124.4          151.0
   0.04773              -35.44          31.81          73.62          42.15         -19.69         -2.018          177.7         -12.37          46.44          124.4          151.0
   0.05727              -35.44          31.81          73.61          42.15         -19.68         -2.018          177.7         -12.35          46.44          124.4          151.0
   0.06682              -35.44          31.81           73.6          42.16         -19.68         -2.019          177.7         -12.33          46.45          124.4          151.0
   0.07636              -35.44          31.81          73.59          42.16         -19.67         -2.019          177.7         -12.31          46.45          124.4          151.0
   0.08591              -35.44          31.81          73.58          42.16         -19.66          -2.02          177.7         -12.29          46.46          124.4          151.0
   0.09546              -35.44          31.81          73.57          42.17         -19.66         -2.021          177.7         -12.26          46.46          124.4          151.0
     0.105              -35.44          31.81          73.56          42.17         -19.65         -2.021          177.6         -12.24          46.47          124.4          151.0
    0.1145              -35.45          31.81          73.55          42.18         -19.64         -2.022          177.6         -12.21          46.47          124.4          151.0
    0.1241              -35.45          31.81          73.53          42.19         -19.63         -2.023          177.6         -12.18          46.48          124.4          151.0
    0.1336              -35.45           31.8          73.52          42.19         -19.62         -2.024          177.6         -12.15          46.49          124.4          151.0
    0.1432              -35.45           31.8           73.5           42.2         -19.61         -2.025          177.6         -12.12           46.5          124.4          151.0
    0.1527              -35.46           31.8          73.48          42.21          -19.6         -2.026          177.5         -12.08          46.51          124.4          151.0
    0.1623              -35.46           31.8          73.46          42.21         -19.59         -2.027          177.5         -12.04          46.52          124.4          151.0
    0.1718              -35.46           31.8          73.44          42.22         -19.58         -2.029          177.5         -11.99          46.53          124.4          151.0
    0.1814              -35.47           31.8          73.42          42.23         -19.57          -2.03          177.4         -11.94          46.54          124.4          151.0
    0.1909              -35.47          31.79          73.39          42.24         -19.55         -2.032          177.4         -11.89          46.55          124.4          151.0
    0.2005              -35.47          31.79          73.37          42.25         -19.53         -2.033          177.4         -11.83          46.57          124.4          151.0
      0.21              -35.48          31.79          73.33          42.27         -19.52         -2.035          177.3         -11.76          46.58          124.4          151.0
    0.2195              -35.48          31.79           73.3          42.28         -19.49         -2.038          177.3         -11.69           46.6          124.4          151.0
    0.2291              -35.49          31.78          73.26           42.3         -19.47          -2.04          177.2         -11.61          46.62          124.4          151.0
    0.2386              -35.49          31.78          73.22          42.31         -19.45         -2.043          177.2         -11.52          46.64          124.4          151.0
    0.2482               -35.5          31.78          73.17          42.33         -19.42         -2.045          177.1         -11.42          46.66          124.4          151.0
    0.2577              -35.51          31.77          73.12          42.36         -19.39         -2.049          177.0         -11.31          46.69          124.3          151.0
    0.2673              -35.52          31.77          73.06          42.38         -19.35         -2.053          176.9         -11.18          46.72          124.3          151.0
    0.2768              -35.53          31.76          72.99          42.41         -19.31         -2.057          176.8         -11.03          46.76          124.3          151.0
    0.2864              -35.54          31.76          72.91          42.44         -19.26         -2.062          176.7         -10.87           46.8          124.3          151.0
    0.2959              -35.55          31.75          72.82          42.48         -19.21         -2.067          176.6         -10.68          46.84          124.3          151.0
    0.3055              -35.57          31.74          72.71          42.52         -19.15         -2.074          176.4         -10.46          46.89          124.3          151.0
     0.315              -35.59          31.73          72.59          42.57         -19.07         -2.081          176.2          -10.2          46.95          124.3          151.0
    0.3245              -35.61          31.72          72.45          42.63         -18.99          -2.09          176.0         -9.902          47.03          124.3          151.0
    0.3341              -35.63          31.71          72.28           42.7         -18.89           -2.1          175.8         -9.549          47.11          124.3          151.1
    0.3436              -35.66           31.7          72.08          42.78         -18.77         -2.113          175.5          -9.13          47.21          124.3          151.1
    0.3532               -35.7          31.68          71.84          42.88         -18.63         -2.127          175.2         -8.627          47.33          124.3          151.1
    0.3627              -35.74          31.66          71.55          42.99         -18.46         -2.145          174.7          -8.02          47.47          124.2          151.1
    0.3723              -35.79          31.63           71.2          43.14         -18.25         -2.167          174.2         -7.277          47.65          124.2          151.1
    0.3818              -35.86           31.6          70.76          43.32         -17.99         -2.194          173.6         -6.361          47.87          124.2          151.1
    0.3914              -35.94          31.55          70.22          43.54         -17.66         -2.227          172.8         -5.218          48.14          124.1          151.2
    0.4009              -36.04           31.5          69.53          43.82         -17.26         -2.269          171.8         -3.778          48.49          124.1          151.2
